<svg version="1.1" xmlns="http://www.w3.org/2000/svg" xmlns:xlink="http://www.w3.org/1999/xlink" width="796.947265625" height="307"><defs/><g><g transform="translate(2,-86) scale(1,1)"><rect fill="#C0C0C0" stroke="none" x="15" y="271" width="168.17236328125" height="75" opacity="0.2"/></g><g transform="translate(2,-86) scale(1,1)"><rect fill="#ffffff" stroke="none" x="8" y="264" width="168.17236328125" height="75"/></g><g transform="translate(2,-86) scale(1,1)"><path fill="none" stroke="#000000" d="M 8 264 L 176.17236328125 264 L 176.17236328125 339 L 8 339 L 8 264 Z Z" stroke-miterlimit="10"/></g><g transform="translate(2,-86) scale(1,1)"><path fill="none" stroke="#000000" d="M 8 287 L 176.17236328125 287" stroke-miterlimit="10"/></g><g transform="translate(2,-86) scale(1,1)"><path fill="none" stroke="#000000" d="M 36.05908203125 287 L 36.05908203125 339" stroke-miterlimit="10"/></g><g transform="translate(2,-86) scale(1,1)"><path fill="none" stroke="#000000" d="M 100.2490234375 287 L 100.2490234375 339" stroke-miterlimit="10"/></g><g transform="translate(2,-86) scale(1,1)"><g><path fill="none" stroke="none"/><text fill="#000000" stroke="none" font-family="Arial" font-size="13px" font-style="normal" font-weight="bold" text-decoration="none" x="45.494384765625" y="281.5">Family_Member</text></g></g><g transform="translate(2,-86) scale(1,1)"><g><path fill="none" stroke="none"/><text fill="#000000" stroke="none" font-family="Arial" font-size="13px" font-style="normal" font-weight="normal" text-decoration="none" x="13" y="305">PK</text></g></g><g transform="translate(2,-86) scale(1,1)"><g><path fill="none" stroke="none"/><text fill="#000000" stroke="none" font-family="Arial" font-size="13px" font-style="normal" font-weight="normal" text-decoration="none" x="41.05908203125" y="305">id</text></g></g><g transform="translate(2,-86) scale(1,1)"><g><path fill="none" stroke="none"/><text fill="#000000" stroke="none" font-family="Arial" font-size="13px" font-style="normal" font-weight="normal" text-decoration="none" x="105.2490234375" y="305">INTEGER</text></g></g><g transform="translate(2,-86) scale(1,1)"><g><path fill="none" stroke="none"/><text fill="#000000" stroke="none" font-family="Arial" font-size="13px" font-style="normal" font-weight="normal" text-decoration="none" x="13" y="304.5"></text></g></g><g transform="translate(2,-86) scale(1,1)"><g><path fill="none" stroke="none"/><text fill="#000000" stroke="none" font-family="Arial" font-size="13px" font-style="normal" font-weight="normal" text-decoration="none" x="13" y="320"></text></g></g><g transform="translate(2,-86) scale(1,1)"><g><path fill="none" stroke="none"/><text fill="#000000" stroke="none" font-family="Arial" font-size="13px" font-style="normal" font-weight="normal" text-decoration="none" x="41.05908203125" y="320">name</text></g></g><g transform="translate(2,-86) scale(1,1)"><g><path fill="none" stroke="none"/><text fill="#000000" stroke="none" font-family="Arial" font-size="13px" font-style="normal" font-weight="normal" text-decoration="none" x="105.2490234375" y="320">TEXT</text></g></g><g transform="translate(2,-86) scale(1,1)"><g><path fill="none" stroke="none"/><text fill="#000000" stroke="none" font-family="Arial" font-size="13px" font-style="normal" font-weight="normal" text-decoration="none" x="13" y="319.5"></text></g></g><g transform="translate(2,-86) scale(1,1)"><g><path fill="none" stroke="none"/><text fill="#000000" stroke="none" font-family="Arial" font-size="13px" font-style="normal" font-weight="normal" text-decoration="none" x="13" y="335"></text></g></g><g transform="translate(2,-86) scale(1,1)"><g><path fill="none" stroke="none"/><text fill="#000000" stroke="none" font-family="Arial" font-size="13px" font-style="normal" font-weight="normal" text-decoration="none" x="41.05908203125" y="335">surname</text></g></g><g transform="translate(2,-86) scale(1,1)"><g><path fill="none" stroke="none"/><text fill="#000000" stroke="none" font-family="Arial" font-size="13px" font-style="normal" font-weight="normal" text-decoration="none" x="105.2490234375" y="335">TEXT</text></g></g><g transform="translate(2,-86) scale(1,1)"><g><path fill="none" stroke="none"/><text fill="#000000" stroke="none" font-family="Arial" font-size="13px" font-style="normal" font-weight="normal" text-decoration="none" x="13" y="334.5"></text></g></g><g transform="translate(2,-86) scale(1,1)"><rect fill="#C0C0C0" stroke="none" x="599" y="103" width="192.947265625" height="75" opacity="0.2"/></g><g transform="translate(2,-86) scale(1,1)"><rect fill="#ffffff" stroke="none" x="592" y="96" width="192.947265625" height="75"/></g><g transform="translate(2,-86) scale(1,1)"><path fill="none" stroke="#000000" d="M 592 96 L 784.947265625 96 L 784.947265625 171 L 592 171 L 592 96 Z Z" stroke-miterlimit="10"/></g><g transform="translate(2,-86) scale(1,1)"><path fill="none" stroke="#000000" d="M 592 119 L 784.947265625 119" stroke-miterlimit="10"/></g><g transform="translate(2,-86) scale(1,1)"><path fill="none" stroke="#000000" d="M 641 119 L 641 171" stroke-miterlimit="10"/></g><g transform="translate(2,-86) scale(1,1)"><path fill="none" stroke="#000000" d="M 718.16455078125 119 L 718.16455078125 171" stroke-miterlimit="10"/></g><g transform="translate(2,-86) scale(1,1)"><g><path fill="none" stroke="none"/><text fill="#000000" stroke="none" font-family="Arial" font-size="13px" font-style="normal" font-weight="bold" text-decoration="none" x="647.274169921875" y="113.5">Shopping_List</text></g></g><g transform="translate(2,-86) scale(1,1)"><g><path fill="none" stroke="none"/><text fill="#000000" stroke="none" font-family="Arial" font-size="13px" font-style="normal" font-weight="normal" text-decoration="none" x="597" y="137">PK,FK</text></g></g><g transform="translate(2,-86) scale(1,1)"><g><path fill="none" stroke="none"/><text fill="#000000" stroke="none" font-family="Arial" font-size="13px" font-style="normal" font-weight="normal" text-decoration="none" x="646" y="137">product_Id</text></g></g><g transform="translate(2,-86) scale(1,1)"><g><path fill="none" stroke="none"/><text fill="#000000" stroke="none" font-family="Arial" font-size="13px" font-style="normal" font-weight="normal" text-decoration="none" x="723.16455078125" y="137">INTEGER</text></g></g><g transform="translate(2,-86) scale(1,1)"><g><path fill="none" stroke="none"/><text fill="#000000" stroke="none" font-family="Arial" font-size="13px" font-style="normal" font-weight="normal" text-decoration="none" x="597" y="136.5"></text></g></g><g transform="translate(2,-86) scale(1,1)"><g><path fill="none" stroke="none"/><text fill="#000000" stroke="none" font-family="Arial" font-size="13px" font-style="normal" font-weight="normal" text-decoration="none" x="597" y="152"></text></g></g><g transform="translate(2,-86) scale(1,1)"><g><path fill="none" stroke="none"/><text fill="#000000" stroke="none" font-family="Arial" font-size="13px" font-style="normal" font-weight="normal" text-decoration="none" x="646" y="152">amount</text></g></g><g transform="translate(2,-86) scale(1,1)"><g><path fill="none" stroke="none"/><text fill="#000000" stroke="none" font-family="Arial" font-size="13px" font-style="normal" font-weight="normal" text-decoration="none" x="723.16455078125" y="152">INTEGER</text></g></g><g transform="translate(2,-86) scale(1,1)"><g><path fill="none" stroke="none"/><text fill="#000000" stroke="none" font-family="Arial" font-size="13px" font-style="normal" font-weight="normal" text-decoration="none" x="597" y="151.5"></text></g></g><g transform="translate(2,-86) scale(1,1)"><rect fill="#C0C0C0" stroke="none" x="287" y="255" width="217.296875" height="135" opacity="0.2"/></g><g transform="translate(2,-86) scale(1,1)"><rect fill="#ffffff" stroke="none" x="280" y="248" width="217.296875" height="135"/></g><g transform="translate(2,-86) scale(1,1)"><path fill="none" stroke="#000000" d="M 280 248 L 497.296875 248 L 497.296875 383 L 280 383 L 280 248 Z Z" stroke-miterlimit="10"/></g><g transform="translate(2,-86) scale(1,1)"><path fill="none" stroke="#000000" d="M 280 271 L 497.296875 271" stroke-miterlimit="10"/></g><g transform="translate(2,-86) scale(1,1)"><path fill="none" stroke="#000000" d="M 308.05908203125 271 L 308.05908203125 383" stroke-miterlimit="10"/></g><g transform="translate(2,-86) scale(1,1)"><path fill="none" stroke="#000000" d="M 412.708984375 271 L 412.708984375 383" stroke-miterlimit="10"/></g><g transform="translate(2,-86) scale(1,1)"><g><path fill="none" stroke="none"/><text fill="#000000" stroke="none" font-family="Arial" font-size="13px" font-style="normal" font-weight="bold" text-decoration="none" x="361.1884765625" y="265.5">Purchase</text></g></g><g transform="translate(2,-86) scale(1,1)"><g><path fill="none" stroke="none"/><text fill="#000000" stroke="none" font-family="Arial" font-size="13px" font-style="normal" font-weight="normal" text-decoration="none" x="285" y="289">PK</text></g></g><g transform="translate(2,-86) scale(1,1)"><g><path fill="none" stroke="none"/><text fill="#000000" stroke="none" font-family="Arial" font-size="13px" font-style="normal" font-weight="normal" text-decoration="none" x="313.05908203125" y="289">id</text></g></g><g transform="translate(2,-86) scale(1,1)"><g><path fill="none" stroke="none"/><text fill="#000000" stroke="none" font-family="Arial" font-size="13px" font-style="normal" font-weight="normal" text-decoration="none" x="417.708984375" y="289">INTEGER</text></g></g><g transform="translate(2,-86) scale(1,1)"><g><path fill="none" stroke="none"/><text fill="#000000" stroke="none" font-family="Arial" font-size="13px" font-style="normal" font-weight="normal" text-decoration="none" x="285" y="288.5"></text></g></g><g transform="translate(2,-86) scale(1,1)"><g><path fill="none" stroke="none"/><text fill="#000000" stroke="none" font-family="Arial" font-size="13px" font-style="normal" font-weight="normal" text-decoration="none" x="285" y="304">FK</text></g></g><g transform="translate(2,-86) scale(1,1)"><g><path fill="none" stroke="none"/><text fill="#000000" stroke="none" font-family="Arial" font-size="13px" font-style="normal" font-weight="normal" text-decoration="none" x="313.05908203125" y="304">product_Id</text></g></g><g transform="translate(2,-86) scale(1,1)"><g><path fill="none" stroke="none"/><text fill="#000000" stroke="none" font-family="Arial" font-size="13px" font-style="normal" font-weight="normal" text-decoration="none" x="417.708984375" y="304">INTEGER</text></g></g><g transform="translate(2,-86) scale(1,1)"><g><path fill="none" stroke="none"/><text fill="#000000" stroke="none" font-family="Arial" font-size="13px" font-style="normal" font-weight="normal" text-decoration="none" x="285" y="303.5"></text></g></g><g transform="translate(2,-86) scale(1,1)"><g><path fill="none" stroke="none"/><text fill="#000000" stroke="none" font-family="Arial" font-size="13px" font-style="normal" font-weight="normal" text-decoration="none" x="285" y="319"></text></g></g><g transform="translate(2,-86) scale(1,1)"><g><path fill="none" stroke="none"/><text fill="#000000" stroke="none" font-family="Arial" font-size="13px" font-style="normal" font-weight="normal" text-decoration="none" x="313.05908203125" y="319">price</text></g></g><g transform="translate(2,-86) scale(1,1)"><g><path fill="none" stroke="none"/><text fill="#000000" stroke="none" font-family="Arial" font-size="13px" font-style="normal" font-weight="normal" text-decoration="none" x="417.708984375" y="319">MONEY</text></g></g><g transform="translate(2,-86) scale(1,1)"><g><path fill="none" stroke="none"/><text fill="#000000" stroke="none" font-family="Arial" font-size="13px" font-style="normal" font-weight="normal" text-decoration="none" x="285" y="318.5"></text></g></g><g transform="translate(2,-86) scale(1,1)"><g><path fill="none" stroke="none"/><text fill="#000000" stroke="none" font-family="Arial" font-size="13px" font-style="normal" font-weight="normal" text-decoration="none" x="285" y="334"></text></g></g><g transform="translate(2,-86) scale(1,1)"><g><path fill="none" stroke="none"/><text fill="#000000" stroke="none" font-family="Arial" font-size="13px" font-style="normal" font-weight="normal" text-decoration="none" x="313.05908203125" y="334">date</text></g></g><g transform="translate(2,-86) scale(1,1)"><g><path fill="none" stroke="none"/><text fill="#000000" stroke="none" font-family="Arial" font-size="13px" font-style="normal" font-weight="normal" text-decoration="none" x="417.708984375" y="334">TIMESTAMP</text></g></g><g transform="translate(2,-86) scale(1,1)"><g><path fill="none" stroke="none"/><text fill="#000000" stroke="none" font-family="Arial" font-size="13px" font-style="normal" font-weight="normal" text-decoration="none" x="285" y="333.5"></text></g></g><g transform="translate(2,-86) scale(1,1)"><g><path fill="none" stroke="none"/><text fill="#000000" stroke="none" font-family="Arial" font-size="13px" font-style="normal" font-weight="normal" text-decoration="none" x="285" y="349">FK</text></g></g><g transform="translate(2,-86) scale(1,1)"><g><path fill="none" stroke="none"/><text fill="#000000" stroke="none" font-family="Arial" font-size="13px" font-style="normal" font-weight="normal" text-decoration="none" x="313.05908203125" y="349">family_Member</text></g></g><g transform="translate(2,-86) scale(1,1)"><g><path fill="none" stroke="none"/><text fill="#000000" stroke="none" font-family="Arial" font-size="13px" font-style="normal" font-weight="normal" text-decoration="none" x="417.708984375" y="349">INTEGER</text></g></g><g transform="translate(2,-86) scale(1,1)"><g><path fill="none" stroke="none"/><text fill="#000000" stroke="none" font-family="Arial" font-size="13px" font-style="normal" font-weight="normal" text-decoration="none" x="285" y="348.5"></text></g></g><g transform="translate(2,-86) scale(1,1)"><g><path fill="none" stroke="none"/><text fill="#000000" stroke="none" font-family="Arial" font-size="13px" font-style="normal" font-weight="normal" text-decoration="none" x="285" y="364"></text></g></g><g transform="translate(2,-86) scale(1,1)"><g><path fill="none" stroke="none"/><text fill="#000000" stroke="none" font-family="Arial" font-size="13px" font-style="normal" font-weight="normal" text-decoration="none" x="313.05908203125" y="364">amount</text></g></g><g transform="translate(2,-86) scale(1,1)"><g><path fill="none" stroke="none"/><text fill="#000000" stroke="none" font-family="Arial" font-size="13px" font-style="normal" font-weight="normal" text-decoration="none" x="417.708984375" y="364">INTEGER</text></g></g><g transform="translate(2,-86) scale(1,1)"><g><path fill="none" stroke="none"/><text fill="#000000" stroke="none" font-family="Arial" font-size="13px" font-style="normal" font-weight="normal" text-decoration="none" x="285" y="363.5"></text></g></g><g transform="translate(2,-86) scale(1,1)"><g><path fill="none" stroke="none"/><text fill="#000000" stroke="none" font-family="Arial" font-size="13px" font-style="normal" font-weight="normal" text-decoration="none" x="285" y="379"></text></g></g><g transform="translate(2,-86) scale(1,1)"><g><path fill="none" stroke="none"/><text fill="#000000" stroke="none" font-family="Arial" font-size="13px" font-style="normal" font-weight="normal" text-decoration="none" x="313.05908203125" y="379">settled</text></g></g><g transform="translate(2,-86) scale(1,1)"><g><path fill="none" stroke="none"/><text fill="#000000" stroke="none" font-family="Arial" font-size="13px" font-style="normal" font-weight="normal" text-decoration="none" x="417.708984375" y="379">BOOLEAN</text></g></g><g transform="translate(2,-86) scale(1,1)"><g><path fill="none" stroke="none"/><text fill="#000000" stroke="none" font-family="Arial" font-size="13px" font-style="normal" font-weight="normal" text-decoration="none" x="285" y="378.5"></text></g></g><g transform="translate(2,-86) scale(1,1)"><path fill="none" stroke="#000000" d="M 176 289 L 280 289" stroke-miterlimit="10"/></g><g transform="translate(2,-86) scale(1,1)"><path fill="none" stroke="#000000" d="M 266 289 L 280 296" stroke-miterlimit="10"/></g><g transform="translate(2,-86) scale(1,1)"><path fill="none" stroke="#000000" d="M 266 289 L 280 282" stroke-miterlimit="10"/></g><g transform="translate(2,-86) scale(1,1)"><path fill="#FFFFFF" stroke="none" d="M 251 289 C 251 285.1340064 254.1340064 282 258 282 C 261.8659936 282 265 285.1340064 265 289 C 265 292.8659936 261.8659936 296 258 296 C 254.1340064 296 251 292.8659936 251 289 Z"/></g><g transform="translate(2,-86) scale(1,1)"><path fill="none" stroke="#000000" d="M 251 289 C 251 285.1340064 254.1340064 282 258 282 C 261.8659936 282 265 285.1340064 265 289 C 265 292.8659936 261.8659936 296 258 296 C 254.1340064 296 251 292.8659936 251 289 Z" stroke-miterlimit="10"/></g><g transform="translate(2,-86) scale(1,1)"><path fill="none" stroke="#000000" d="M 183 282 L 183 296" stroke-miterlimit="10"/></g><g transform="translate(2,-86) scale(1,1)"><path fill="none" stroke="#000000" d="M 190 282 L 190 296" stroke-miterlimit="10"/></g><g transform="translate(2,-86) scale(1,1)"><g><path fill="none" stroke="none"/><text fill="#000000" stroke="none" font-family="Arial" font-size="13px" font-style="normal" font-weight="normal" text-decoration="none" x="214.5" y="280.5">buys</text></g></g><g transform="translate(2,-86) scale(1,1)"><g><path fill="none" stroke="none"/><text fill="#000000" stroke="none" font-family="Arial" font-size="13px" font-style="normal" font-weight="normal" text-decoration="none" x="200.55908203125" y="280.5"></text></g></g><g transform="translate(2,-86) scale(1,1)"><g><path fill="none" stroke="none"/><text fill="#000000" stroke="none" font-family="Arial" font-size="13px" font-style="normal" font-weight="normal" text-decoration="none" x="253.5" y="280.5"></text></g></g><g transform="translate(2,-86) scale(1,1)"><rect fill="#C0C0C0" stroke="none" x="599" y="271" width="188.630859375" height="75" opacity="0.2"/></g><g transform="translate(2,-86) scale(1,1)"><rect fill="#ffffff" stroke="none" x="592" y="264" width="188.630859375" height="75"/></g><g transform="translate(2,-86) scale(1,1)"><path fill="none" stroke="#000000" d="M 592 264 L 780.630859375 264 L 780.630859375 339 L 592 339 L 592 264 Z Z" stroke-miterlimit="10"/></g><g transform="translate(2,-86) scale(1,1)"><path fill="none" stroke="#000000" d="M 592 287 L 780.630859375 287" stroke-miterlimit="10"/></g><g transform="translate(2,-86) scale(1,1)"><path fill="none" stroke="#000000" d="M 620.05908203125 287 L 620.05908203125 339" stroke-miterlimit="10"/></g><g transform="translate(2,-86) scale(1,1)"><path fill="none" stroke="#000000" d="M 664.01904296875 287 L 664.01904296875 339" stroke-miterlimit="10"/></g><g transform="translate(2,-86) scale(1,1)"><g><path fill="none" stroke="none"/><text fill="#000000" stroke="none" font-family="Arial" font-size="13px" font-style="normal" font-weight="bold" text-decoration="none" x="663.91455078125" y="281.5">Product</text></g></g><g transform="translate(2,-86) scale(1,1)"><g><path fill="none" stroke="none"/><text fill="#000000" stroke="none" font-family="Arial" font-size="13px" font-style="normal" font-weight="normal" text-decoration="none" x="597" y="305">PK</text></g></g><g transform="translate(2,-86) scale(1,1)"><g><path fill="none" stroke="none"/><text fill="#000000" stroke="none" font-family="Arial" font-size="13px" font-style="normal" font-weight="normal" text-decoration="none" x="625.05908203125" y="305">id</text></g></g><g transform="translate(2,-86) scale(1,1)"><g><path fill="none" stroke="none"/><text fill="#000000" stroke="none" font-family="Arial" font-size="13px" font-style="normal" font-weight="normal" text-decoration="none" x="669.01904296875" y="305">INTEGER</text></g></g><g transform="translate(2,-86) scale(1,1)"><g><path fill="none" stroke="none"/><text fill="#000000" stroke="none" font-family="Arial" font-size="13px" font-style="normal" font-weight="normal" text-decoration="none" x="597" y="304.5"></text></g></g><g transform="translate(2,-86) scale(1,1)"><g><path fill="none" stroke="none"/><text fill="#000000" stroke="none" font-family="Arial" font-size="13px" font-style="normal" font-weight="normal" text-decoration="none" x="597" y="320"></text></g></g><g transform="translate(2,-86) scale(1,1)"><g><path fill="none" stroke="none"/><text fill="#000000" stroke="none" font-family="Arial" font-size="13px" font-style="normal" font-weight="normal" text-decoration="none" x="625.05908203125" y="320">name</text></g></g><g transform="translate(2,-86) scale(1,1)"><g><path fill="none" stroke="none"/><text fill="#000000" stroke="none" font-family="Arial" font-size="13px" font-style="normal" font-weight="normal" text-decoration="none" x="669.01904296875" y="320">TEXT</text></g></g><g transform="translate(2,-86) scale(1,1)"><g><path fill="none" stroke="none"/><text fill="#000000" stroke="none" font-family="Arial" font-size="13px" font-style="normal" font-weight="normal" text-decoration="none" x="597" y="319.5"></text></g></g><g transform="translate(2,-86) scale(1,1)"><path fill="none" stroke="#000000" d="M 592 309 L 497 309" stroke-miterlimit="10"/></g><g transform="translate(2,-86) scale(1,1)"><path fill="none" stroke="#000000" d="M 511 309 L 497 302" stroke-miterlimit="10"/></g><g transform="translate(2,-86) scale(1,1)"><path fill="none" stroke="#000000" d="M 511 309 L 497 316" stroke-miterlimit="10"/></g><g transform="translate(2,-86) scale(1,1)"><path fill="#FFFFFF" stroke="none" d="M 512 309 C 512 305.1340064 515.1340064 302 519 302 C 522.8659936 302 526 305.1340064 526 309 C 526 312.8659936 522.8659936 316 519 316 C 515.1340064 316 512 312.8659936 512 309 Z"/></g><g transform="translate(2,-86) scale(1,1)"><path fill="none" stroke="#000000" d="M 512 309 C 512 305.1340064 515.1340064 302 519 302 C 522.8659936 302 526 305.1340064 526 309 C 526 312.8659936 522.8659936 316 519 316 C 515.1340064 316 512 312.8659936 512 309 Z" stroke-miterlimit="10"/></g><g transform="translate(2,-86) scale(1,1)"><path fill="none" stroke="#000000" d="M 585 316 L 585 302" stroke-miterlimit="10"/></g><g transform="translate(2,-86) scale(1,1)"><path fill="none" stroke="#000000" d="M 578 316 L 578 302" stroke-miterlimit="10"/></g><g transform="translate(2,-86) scale(1,1)"><g><path fill="none" stroke="none"/><text fill="#000000" stroke="none" font-family="Arial" font-size="13px" font-style="normal" font-weight="normal" text-decoration="none" x="565.5" y="329.5"></text></g></g><g transform="translate(2,-86) scale(1,1)"><g><path fill="none" stroke="none"/><text fill="#000000" stroke="none" font-family="Arial" font-size="13px" font-style="normal" font-weight="normal" text-decoration="none" x="521.5" y="329.5"></text></g></g><g transform="translate(2,-86) scale(1,1)"><path fill="none" stroke="#000000" d="M 686 171 L 686 264" stroke-miterlimit="10"/></g><g transform="translate(2,-86) scale(1,1)"><path fill="none" stroke="#000000" d="M 679 257 L 693 257" stroke-miterlimit="10"/></g><g transform="translate(2,-86) scale(1,1)"><path fill="none" stroke="#000000" d="M 679 250 L 693 250" stroke-miterlimit="10"/></g><g transform="translate(2,-86) scale(1,1)"><path fill="none" stroke="#000000" d="M 693 178 L 679 178" stroke-miterlimit="10"/></g><g transform="translate(2,-86) scale(1,1)"><path fill="none" stroke="#000000" d="M 693 185 L 679 185" stroke-miterlimit="10"/></g><g transform="translate(2,-86) scale(1,1)"><g><path fill="none" stroke="none"/><text fill="#000000" stroke="none" font-family="Arial" font-size="13px" font-style="normal" font-weight="normal" text-decoration="none" x="694.5" y="222.5">contains</text></g></g><g transform="translate(2,-86) scale(1,1)"><g><path fill="none" stroke="none"/><text fill="#000000" stroke="none" font-family="Arial" font-size="13px" font-style="normal" font-weight="normal" text-decoration="none" x="700.5" y="202.5"></text></g></g><g transform="translate(2,-86) scale(1,1)"><g><path fill="none" stroke="none"/><text fill="#000000" stroke="none" font-family="Arial" font-size="13px" font-style="normal" font-weight="normal" text-decoration="none" x="700.5" y="244.5"></text></g></g></g></svg>